{"title":"Supernatural Season 9 complete 720p BluRay x265 +ENG Subs[AshyBu","uid":11767858,"size":8553073191,"categoryP":"video","categoryS":"hd___tv_shows","magnet":"?xt=urn:btih:6ca06faa0dfb01ea839b4e2dbd057724b878fa54&amp;dn=Supernatural+Season+9+complete+720p+BluRay+x265+%2BENG+Subs%5BAshyBu&amp;tr=udp%3A%2F%2Ftracker.openbittorrent.com%3A80&amp;tr=udp%3A%2F%2Fopen.demonii.com%3A1337&amp;tr=udp%3A%2F%2Ftracker.coppersurfer.tk%3A6969&amp;tr=udp%3A%2F%2Fexodus.desync.com%3A6969","seeders":13,"leechers":23,"uploader":"ashybuoy","files":23,"time":1426933545,"description":"Video\nID : 1\nFormat : HEVC\nFormat/Info : High Efficiency Video Coding\nCodec ID : V_MPEGH/ISO/HEVC\nDuration : 42mn 14s\nBit rate : 1 079 Kbps\nWidth : 1 280 pixels\nHeight : 720 pixels\nDisplay aspect ratio : 16:9\nFrame rate mode : Constant\nFrame rate : 23.976 fps\nBits/(Pixel*Frame) : 0.049\nStream size : 326 MiB (93%)\nDefault : Yes\nForced : No\nDURATION : 00:42:13.532000000\nNUMBER_OF_FRAMES : 60744\nNUMBER_OF_BYTES : 348474585\n\nAudio\nID : 3\nFormat : MPEG Audio\nFormat version : Version 2\nFormat profile : Layer 3\nCodec ID : A_MPEG/L3\nCodec ID/Hint : MP3\nDuration : 42mn 14s\nBit rate mode : Constant\nBit rate : 64.0 Kbps\nChannel(s) : 2 channels\nSampling rate : 22.05 KHz\nCompression mode : Lossy\nDelay relative to video : -83ms\nStream size : 19.3 MiB (5%)\nTitle : [AshyBuoy]\nWriting library : LAME3.82\nLanguage : English\nDefault : Yes\nForced : No\n\nText\nID : 2\nFormat : UTF-8\nCodec ID : S_TEXT/UTF8\nCodec ID/Info : UTF-8 Plain Text\nTitle : [AshyBuoy]\nLanguage : English\nDefault : Yes\nForced : No","torrent":{"xt":"urn:btih:6ca06faa0dfb01ea839b4e2dbd057724b878fa54","amp;dn":"Supernatural+Season+9+complete+720p+BluRay+x265+%2BENG+Subs%5BAshyBu","amp;tr":["udp%3A%2F%2Ftracker.openbittorrent.com%3A80","udp%3A%2F%2Fopen.demonii.com%3A1337","udp%3A%2F%2Ftracker.coppersurfer.tk%3A6969","udp%3A%2F%2Fexodus.desync.com%3A6969"],"infoHash":"6ca06faa0dfb01ea839b4e2dbd057724b878fa54","infoHashBuffer":{"type":"Buffer","data":[108,160,111,170,13,251,1,234,131,155,78,45,189,5,119,36,184,120,250,84]},"announce":[],"urlList":[]}}